<svg data-v-0dd9719b="" version="1.0" xmlns="http://www.w3.org/2000/svg" xmlns:xlink="http://www.w3.org/1999/xlink" width="100%" height="100%" viewBox="0 0 340.000000 250.000000" preserveAspectRatio="xMidYMid meet" color-interpolation-filters="sRGB" style="margin: auto;"> <rect data-v-0dd9719b="" x="0" y="0" width="100%" height="100%" fill="#FFFFFF" fill-opacity="1" class="background"></rect> <rect data-v-0dd9719b="" x="0" y="0" width="100%" height="100%" fill="url(#watermark)" fill-opacity="1" class="watermarklayer"></rect> <g data-v-0dd9719b="" fill="#fc4349" class="icon-text-wrapper icon-svg-group iconsvg" transform="translate(53.69999694824219,94.99999618530273)"><g fill="#303947" class="iconsvg-imagesvg icon_container" transform="translate(0,0)"><rect fill="#fc4349" fill-opacity="0" stroke-width="2" x="0" y="0" width="60.000004400305" height="60.000004400305" class="image-rect"></rect> <svg viewBox="0 0 60 60" x="0" y="0" width="60.000004400305" height="60.000004400305" class="image-svg-svg bn" style="overflow: visible;"><g hollow-target="iconBnFill" mask="url(#b6726e8e-8918-4466-9efd-bd6c038e572c)"><g><svg fill="#000000" xmlns:x="http://ns.adobe.com/Extensibility/1.0/" xmlns:i="http://ns.adobe.com/AdobeIllustrator/10.0/" xmlns:graph="http://ns.adobe.com/Graphs/1.0/" xmlns="http://www.w3.org/2000/svg" xmlns:xlink="http://www.w3.org/1999/xlink" version="1.1" x="0" y="0" viewBox="6 6 52 52" enable-background="new 0 0 64 64" xml:space="preserve" style="overflow: visible;" width="60" height="60" filtersec="colorsb9349710095" filter="url(#K6yZKTpxtDY6M4SoSS9b1)"><g transform="scale(1, 1) skewX(0)"><metadata><sfw xmlns="http://ns.adobe.com/SaveForWeb/1.0/"><slices></slices><slicesourcebounds y="-8160" x="-8165" width="16389" height="16384" bottomleftorigin="true"></slicesourcebounds><optimizationsettings><targetsettings targetsettingsid="0" fileformat="PNG24Format"><png24format transparency="true" filtered="false" interlaced="false" nomattecolor="false" mattecolor="#FFFFFF"></png24format></targetsettings></optimizationsettings></sfw></metadata><g><path d="M56,6H8C6.896,6,6,6.896,6,8v48c0,1.104,0.896,2,2,2h48c1.104,0,2-0.896,2-2V8C58,6.896,57.104,6,56,6z"></path></g></g><defs><filter id="K6yZKTpxtDY6M4SoSS9b1"><feColorMatrix type="matrix" values="0 0 0 0 0.1875  0 0 0 0 0.22265625  0 0 0 0 0.27734375  0 0 0 1 0"></feColorMatrix></filter></defs></svg></g> <g><svg version="1.1" id="图层_1" xmlns="http://www.w3.org/2000/svg" xmlns:xlink="http://www.w3.org/1999/xlink" x="5.5" y="5.5" viewBox="0.9700000286102295 1.4499969482421875 104.02999877929688 104.0300064086914" enable-background="new 0 0 106 107" xml:space="preserve" width="49" height="49" class="image-svg-icon">
<g>
	<path fill="#fc4349" d="M23.63,77.09c6.53-5.66,13.18-10.55,19.82-14.68c8.02-19.89,9.89-41.89,4.38-60.96H0.97v99.48
		C7.6,92.49,15.18,84.42,23.63,77.09z"></path>
	<path fill="#fc4349" d="M7.92,99.1c-2.36,2.05-4.56,4.22-6.78,6.38h9.03c2.28-1.61,4.53-3.33,6.74-5.25
		c6.47-5.61,12.05-12.15,16.77-19.25C25.08,85.74,16.4,91.75,7.92,99.1z"></path>
</g>
<g>
	<path fill="#fc4349" d="M62.42,52.71c15.6-6.31,30.4-8.11,42.58-5.19V1.45H66.85C70.19,17.84,68.47,35.9,62.42,52.71z"></path>
	<path fill="#fc4349" d="M105,85.21v-7.96C92.56,66.99,73.67,65.55,52.83,72.5c-5.02,8.07-11.15,15.47-18.36,21.72
		c-5.38,4.68-11.01,8.42-16.72,11.26H105v-0.09C96.31,87.6,71.72,81.2,47.85,91.27c-4.16,1.75-8.03,3.9-11.58,6.34
		c5.72-6.1,13.04-11.31,21.52-14.88C75.34,75.32,93.27,76.83,105,85.21z"></path>
</g>
</svg></g></g><mask id="b6726e8e-8918-4466-9efd-bd6c038e572c"><g fill="white"><svg xmlns:x="http://ns.adobe.com/Extensibility/1.0/" xmlns:i="http://ns.adobe.com/AdobeIllustrator/10.0/" xmlns:graph="http://ns.adobe.com/Graphs/1.0/" xmlns="http://www.w3.org/2000/svg" xmlns:xlink="http://www.w3.org/1999/xlink" version="1.1" x="0" y="0" viewBox="6 6 52 52" enable-background="new 0 0 64 64" xml:space="preserve" style="overflow: visible;" width="60" height="60" filtersec="colorsb9349710095"><g transform="scale(1, 1) skewX(0)"><metadata><sfw xmlns="http://ns.adobe.com/SaveForWeb/1.0/"><slices></slices><slicesourcebounds y="-8160" x="-8165" width="16389" height="16384" bottomleftorigin="true"></slicesourcebounds><optimizationsettings><targetsettings targetsettingsid="0" fileformat="PNG24Format"><png24format transparency="true" filtered="false" interlaced="false" nomattecolor="false" mattecolor="#FFFFFF"></png24format></targetsettings></optimizationsettings></sfw></metadata><g><path d="M56,6H8C6.896,6,6,6.896,6,8v48c0,1.104,0.896,2,2,2h48c1.104,0,2-0.896,2-2V8C58,6.896,57.104,6,56,6z"></path></g></g><defs></defs></svg></g> <g fill="black"><svg version="1.1" id="图层_1" xmlns="http://www.w3.org/2000/svg" xmlns:xlink="http://www.w3.org/1999/xlink" x="5.5" y="5.5" viewBox="0.9700000286102295 1.4499969482421875 104.02999877929688 104.0300064086914" enable-background="new 0 0 106 107" xml:space="preserve" width="49" height="49" class="image-svg-icon">
<g>
	<path d="M23.63,77.09c6.53-5.66,13.18-10.55,19.82-14.68c8.02-19.89,9.89-41.89,4.38-60.96H0.97v99.48
		C7.6,92.49,15.18,84.42,23.63,77.09z"></path>
	<path d="M7.92,99.1c-2.36,2.05-4.56,4.22-6.78,6.38h9.03c2.28-1.61,4.53-3.33,6.74-5.25
		c6.47-5.61,12.05-12.15,16.77-19.25C25.08,85.74,16.4,91.75,7.92,99.1z"></path>
</g>
<g>
	<path d="M62.42,52.71c15.6-6.31,30.4-8.11,42.58-5.19V1.45H66.85C70.19,17.84,68.47,35.9,62.42,52.71z"></path>
	<path d="M105,85.21v-7.96C92.56,66.99,73.67,65.55,52.83,72.5c-5.02,8.07-11.15,15.47-18.36,21.72
		c-5.38,4.68-11.01,8.42-16.72,11.26H105v-0.09C96.31,87.6,71.72,81.2,47.85,91.27c-4.16,1.75-8.03,3.9-11.58,6.34
		c5.72-6.1,13.04-11.31,21.52-14.88C75.34,75.32,93.27,76.83,105,85.21z"></path>
</g>
</svg></g></mask></svg> <!----></g> <g transform="translate(67.00000762939453,2.3537540435791016)"><g data-gra="path-name" fill-rule="" class="tp-name iconsvg-namesvg" transform="translate(0,0)"><g transform="scale(1)"><g><path d="M39.48-13.99L24.06-13.99Q25.22-11.75 26.78-9.98 28.33-8.21 30.36-6.72 32.39-5.23 34.96-4 37.53-2.76 40.77-1.6L40.77-1.6 37.62 3.58Q34.08 1.99 31.14 0.19 28.2-1.6 25.79-3.71 23.37-5.83 21.42-8.36 19.48-10.88 17.88-13.99L17.88-13.99 13.91-13.99 13.91-2.85Q15.85-3.46 17.75-4.17 19.65-4.88 21.6-5.57L21.6-5.57 21.77 0.3Q21.16 0.48 20.02 0.91 18.87 1.34 17.45 1.9 16.02 2.46 14.47 3.11 12.91 3.76 11.49 4.32L11.49 4.32Q11.06 4.54 10.6 4.75 10.15 4.97 9.67 5.23L9.67 5.23 6.91-0.52Q7.95-0.95 8.18-1.43 8.42-1.9 8.42-2.68L8.42-2.68 8.42-13.99 2.76-13.99 2.76-19.39 8.42-19.39 8.42-34.16 13.91-33.99 13.91-19.39 16.41-19.39 14.47-24.53Q16.84-25.35 19.31-26.45 21.77-27.56 24.14-28.81 26.52-30.06 28.79-31.4 31.05-32.74 33.08-34.03L33.08-34.03 35.76-28.81Q33.69-27.56 31.36-26.24 29.02-24.92 26.54-23.69 24.06-22.46 21.53-21.36 19-20.26 16.54-19.39L16.54-19.39 39.48-19.39 39.48-13.99ZM83.75-16.02L79.43-13.22 80.12-12.65Q77.96-9.37 75.58-6.82 73.21-4.28 70.36-2.18 67.51-0.09 64.05 1.68 60.6 3.46 56.23 5.18L56.23 5.18 53.34-0.04Q56.32-1.08 58.83-2.16 61.33-3.24 63.47-4.43 65.61-5.61 67.4-6.91 69.19-8.21 70.7-9.63L70.7-9.63 66.3-9.63 66.3-34.38 71.7-34.16 71.7-10.62Q74.03-13.09 75.93-16.15L75.93-16.15 79.13-13.48Q78.48-15.03 77.59-17.04 76.71-19.05 75.78-21.01 74.85-22.98 73.94-24.73 73.04-26.48 72.35-27.6L72.35-27.6 76.79-29.76Q77.44-28.72 78.39-26.95 79.34-25.18 80.36-23.22 81.37-21.25 82.28-19.31 83.19-17.36 83.75-16.02L83.75-16.02ZM57.7-28.51L55.03-23.76Q54.29-24.45 53.25-25.29 52.22-26.13 51.14-26.93 50.06-27.73 49.04-28.44 48.03-29.15 47.25-29.63L47.25-29.63 50.1-34.03Q50.88-33.56 51.94-32.85 53-32.13 54.08-31.36 55.15-30.58 56.13-29.8 57.1-29.02 57.7-28.51L57.7-28.51ZM59.82-11.19L54.72-13.56Q56.67-17.19 58.39-21.38 60.12-25.57 61.29-29.5L61.29-29.5 66-27.73Q65.43-25.83 64.7-23.67 63.97-21.51 63.15-19.33 62.32-17.15 61.46-15.05 60.6-12.96 59.82-11.19L59.82-11.19ZM55.15-18.7L52.35-13.91Q51.61-14.6 50.58-15.48 49.54-16.37 48.46-17.23 47.38-18.1 46.34-18.87 45.31-19.65 44.53-20.13L44.53-20.13 47.47-24.58Q48.29-24.06 49.3-23.32 50.32-22.59 51.38-21.79 52.43-20.99 53.43-20.17 54.42-19.35 55.15-18.7L55.15-18.7ZM53.51-10.71L55.8-9.67Q55.63-9.16 55.22-8.1 54.81-7.04 54.25-5.68 53.69-4.32 53.06-2.83 52.43-1.34 51.83 0.02 51.22 1.38 50.68 2.48 50.14 3.58 49.84 4.15L49.84 4.15 44.83 1.64Q45.13 1.12 45.65 0.06 46.17-0.99 46.78-2.33 47.38-3.67 48.03-5.16 48.68-6.65 49.26-8.01 49.84-9.37 50.27-10.45 50.71-11.53 50.88-12.05L50.88-12.05 53.51-10.71ZM121.15-5.96L125.69-4.58Q125.69-4.1 125.64-3.24 125.6-2.38 125.43-1.12L125.43-1.12Q125.25 0.17 124.87 0.99 124.48 1.81 123.81 2.31 123.14 2.81 122.12 3.02 121.11 3.24 119.68 3.33L119.68 3.33Q117.57 3.46 115.49 3.33L115.49 3.33Q113.12 3.2 111.95 2.2 110.79 1.21 110.79-1.38L110.79-1.38 110.79-4.79Q109.1-2.2 106.4 0 103.7 2.2 99.77 4.62L99.77 4.62 96.96 0Q99.12-1.21 100.83-2.33 102.54-3.46 103.85-4.6 105.17-5.74 106.14-6.93 107.11-8.12 107.76-9.5L107.76-9.5 100.98-9.5 100.98-20.47 99.64-22.46 96.96-22.46 96.96-18.05 99.34-18.87 99.68-16.37 100.03-13.52Q99.43-13.3 98.63-13.04 97.83-12.78 96.96-12.48L96.96-12.48 96.96-1.04Q96.96 1.51 96.01 2.74 95.06 3.97 92.64 4.28L92.64 4.28 90.01 4.62 88.46-0.52 90.57-0.86Q91.44-1.04 91.69-1.45 91.95-1.86 91.95-2.98L91.95-2.98 91.95-10.71Q90.79-10.28 89.73-9.91 88.67-9.55 87.81-9.2L87.81-9.2 86.77-14.56Q87.81-14.9 89.15-15.35 90.49-15.81 91.95-16.33L91.95-16.33 91.95-22.46 88.11-22.46 88.11-27.6 91.95-27.6 91.95-34.08 96.96-33.86 96.96-27.6 99.77-27.6 99.77-24.62Q101.89-26.82 103.72-29.61 105.56-32.39 106.9-35.11L106.9-35.11 111.69-33.9Q111.22-32.91 110.7-31.92L110.7-31.92 120.85-31.92 120.85-27.43 117.91-24.14 123.05-24.14 123.05-9.5 115.41-9.5 115.41-3.11Q115.41-2.2 115.67-1.92 115.92-1.64 116.92-1.55L116.92-1.55Q117.83-1.51 118.78-1.55L118.78-1.55Q119.81-1.64 120.27-1.81 120.72-1.99 120.89-2.98L120.89-2.98Q121.02-3.8 121.06-4.45 121.11-5.1 121.15-5.96L121.15-5.96ZM114.72-27.34L108.02-27.34Q107.46-26.48 106.9-25.7 106.34-24.92 105.73-24.14L105.73-24.14 111.91-24.14 114.72-27.34ZM105.69-14.3L109.23-14.3Q109.45-15.42 109.53-16.65 109.62-17.88 109.66-19.26L109.66-19.26 105.69-19.26 105.69-14.3ZM118.3-14.3L118.3-19.26 114.46-19.26Q114.37-17.88 114.28-16.65 114.2-15.42 114.02-14.3L114.02-14.3 118.3-14.3ZM164-11.66L152.46-11.66 152.46-2.68Q152.46-0.65 152.27 0.58 152.08 1.81 151.43 2.55 150.78 3.28 149.55 3.63 148.32 3.97 146.29 4.15L146.29 4.15 143.52 4.41 141.75-0.86 144.34-1.12Q145.25-1.21 145.77-1.36 146.29-1.51 146.53-1.86 146.76-2.2 146.83-2.87 146.89-3.54 146.89-4.71L146.89-4.71 146.89-11.66 133.63-11.66 133.63-16.8Q135.14-18.79 136.51-20.77 137.87-22.76 139.08-24.96L139.08-24.96 131.65-24.96 131.78-30.15 141.67-30.15Q142.14-31.27 142.62-32.46 143.09-33.65 143.57-34.9L143.57-34.9 149.57-33.6Q149.23-32.74 148.86-31.87 148.49-31.01 148.06-30.15L148.06-30.15 165.77-30.15 165.77-24.96 145.47-24.96Q142.83-20.13 140.37-16.76L140.37-16.76 146.89-16.76 146.89-22.89 152.46-22.68 152.46-16.76 164-16.76 164-11.66ZM138.86-10.97L142.92-7.69Q140.98-5.01 138.32-2.16 135.66 0.69 132.08 3.28L132.08 3.28 128.54-1.08Q131.47-3.07 134.19-5.68 136.92-8.29 138.86-10.97L138.86-10.97ZM154.28-7.13L157.6-10.97Q160.84-8.51 163.43-6.15 166.03-3.8 168.36-1.38L168.36-1.38 164.95 3.02Q162.87 0.6 160.07-2.09 157.26-4.79 154.28-7.13L154.28-7.13Z" transform="translate(-2.759999990463257, 35.11000061035156)"></path></g> <!----> <!----> <!----> <!----> <!----> <!----> <!----></g></g> <g data-gra="path-slogan" fill-rule="" class="tp-slogan iconsvg-slogansvg" fill="#303947" transform="translate(1.0750045776367188,47.34000015258789)"><rect width="0"></rect> <rect x="166.4499969482422" width="0"></rect> <g transform="translate(0,0)"><g transform="scale(1)"><path d="M8.06-6.05L8.06-6.05L6.94-6.05Q6.52-7.78 4.55-7.83L4.55-7.83Q1.83-7.69 1.73-4.36L1.73-4.36Q1.73-0.80 4.59-0.80L4.59-0.80Q6.56-0.84 7.03-3.19L7.03-3.19L8.16-3.19Q7.64 0.05 4.36 0.14L4.36 0.14Q0.61 0 0.52-4.31L0.52-4.31Q0.70-8.63 4.55-8.81L4.55-8.81Q7.59-8.72 8.06-6.05ZM12.69-5.06L17.19-5.06L17.19-8.58L18.36-8.58L18.36 0L17.19 0L17.19-3.98L12.69-3.98L12.69 0L11.52 0L11.52-8.58L12.69-8.58L12.69-5.06ZM27.81 0L26.97-2.48L23.50-2.48L22.61 0L21.44 0L24.67-8.58L25.98-8.58L29.08 0L27.81 0ZM25.23-7.31L23.88-3.52L26.55-3.52L25.28-7.31L25.23-7.31ZM33.52-8.58L37.83-1.64L37.83-8.58L38.95-8.58L38.95 0L37.64 0L33.28-6.94L33.23-6.94L33.23 0L32.11 0L32.11-8.58L33.52-8.58ZM49.16-3.61L46.53-3.61L46.53-4.59L50.28-4.59L50.28 0L49.53 0L49.25-1.08Q48.27 0.09 46.44 0.14L46.44 0.14Q44.70 0.14 43.77-0.75L43.77-0.75Q42.36-2.06 42.41-4.36L42.41-4.36Q42.73-8.63 46.48-8.81L46.48-8.81Q49.67-8.63 50.14-6L50.14-6L49.02-6Q48.55-7.78 46.44-7.83L46.44-7.83Q43.77-7.64 43.63-4.31L43.63-4.31Q43.63-0.75 46.48-0.75L46.48-0.75Q47.52-0.75 48.27-1.31L48.27-1.31Q49.20-2.06 49.16-3.61L49.16-3.61ZM60.34-6.09L60.34-6.09L59.27-6.09Q59.17-7.73 57.11-7.83L57.11-7.83Q55.19-7.78 55.19-6.33L55.19-6.33Q55.19-5.39 56.22-5.25L56.22-5.25L58.66-4.69Q60.58-4.22 60.58-2.34L60.58-2.34Q60.53 0.05 57.20 0.14L57.20 0.14Q55.38 0.14 54.63-0.61L54.63-0.61Q53.69-1.31 53.73-2.77L53.73-2.77L54.86-2.77Q54.91-0.80 57.20-0.75L57.20-0.75Q59.45-0.80 59.50-2.20L59.50-2.20Q59.69-3.38 57.63-3.75L57.63-3.75L55.84-4.13Q54.02-4.64 54.02-6.19L54.02-6.19Q54.16-8.72 57.02-8.81L57.02-8.81Q60.25-8.81 60.34-6.09ZM65.20-5.06L69.70-5.06L69.70-8.58L70.88-8.58L70.88 0L69.70 0L69.70-3.98L65.20-3.98L65.20 0L64.03 0L64.03-8.58L65.20-8.58L65.20-5.06ZM80.33 0L79.48-2.48L76.02-2.48L75.13 0L73.95 0L77.19-8.58L78.50-8.58L81.59 0L80.33 0ZM77.75-7.31L76.39-3.52L79.06-3.52L77.80-7.31L77.75-7.31ZM94.73-7.13L94.69-7.13L92.72 0L91.50 0L89.25-8.58L90.47-8.58L92.11-1.59L92.16-1.59L94.08-8.58L95.34-8.58L97.27-1.59L97.31-1.59L98.91-8.58L100.17-8.58L97.92 0L96.70 0L94.73-7.13ZM108.92 0L108.08-2.48L104.61-2.48L103.72 0L102.55 0L105.78-8.58L107.09-8.58L110.19 0L108.92 0ZM106.34-7.31L104.98-3.52L107.66-3.52L106.39-7.31L106.34-7.31ZM114.63-8.58L118.94-1.64L118.94-8.58L120.06-8.58L120.06 0L118.75 0L114.39-6.94L114.34-6.94L114.34 0L113.22 0L113.22-8.58L114.63-8.58ZM127.36 0L123.89 0L123.89-8.58L127.41-8.58Q130.88-8.39 131.02-4.41L131.02-4.41Q130.83-0.09 127.36 0L127.36 0ZM127.22-7.64L125.06-7.64L125.06-0.98L127.31-0.98Q129.75-1.13 129.84-4.31L129.84-4.31Q129.80-7.55 127.22-7.64L127.22-7.64ZM141.27-4.27L141.27-4.27Q141.08-7.64 138.27-7.83L138.27-7.83Q135.41-7.69 135.27-4.27L135.27-4.27Q135.41-0.94 138.27-0.80L138.27-0.80Q141.08-0.98 141.27-4.27ZM142.44-4.27L142.44-4.27Q142.16 0 138.27 0.14L138.27 0.14Q134.33 0 134.05-4.27L134.05-4.27Q134.28-8.72 138.27-8.81L138.27-8.81Q142.16-8.67 142.44-4.27ZM147.20-8.58L151.52-1.64L151.52-8.58L152.64-8.58L152.64 0L151.33 0L146.97-6.94L146.92-6.94L146.92 0L145.80 0L145.80-8.58L147.20-8.58ZM162.84-3.61L160.22-3.61L160.22-4.59L163.97-4.59L163.97 0L163.22 0L162.94-1.08Q161.95 0.09 160.13 0.14L160.13 0.14Q158.39 0.14 157.45-0.75L157.45-0.75Q156.05-2.06 156.09-4.36L156.09-4.36Q156.42-8.63 160.17-8.81L160.17-8.81Q163.36-8.63 163.83-6L163.83-6L162.70-6Q162.23-7.78 160.13-7.83L160.13-7.83Q157.45-7.64 157.31-4.31L157.31-4.31Q157.31-0.75 160.17-0.75L160.17-0.75Q161.20-0.75 161.95-1.31L161.95-1.31Q162.89-2.06 162.84-3.61L162.84-3.61Z" transform="translate(-0.515625, 8.8125)"></path></g></g></g></g></g><defs v-gra="od"></defs></svg>